<?xml version="1.0" standalone="no"?>
<!DOCTYPE svg PUBLIC "-//W3C//DTD SVG 1.1//EN" "http://www.w3.org/Graphics/SVG/1.1/DTD/svg11.dtd">
<svg xmlns="http://www.w3.org/2000/svg">
<defs >
<font id="GothicA1" horiz-adv-x="1009" ><font-face
    font-family="Gothic A1 Black"
    units-per-em="1024"
    panose-1="0 0 0 0 0 0 0 0 0 0"
    ascent="817"
    descent="-207"
    alphabetic="0" />
<glyph unicode=" " glyph-name="space" horiz-adv-x="250" />
<glyph unicode="!" glyph-name="exclam" horiz-adv-x="346" d="M74 -2V174H272V-2H74ZM252 235H95L85 826H260L252 235Z" />
<glyph unicode="&quot;" glyph-name="quotedbl" horiz-adv-x="663" d="M339 561L445 905H613L468 561H339ZM74 561L180 905H349L203 561H74Z" />
<glyph unicode="#" glyph-name="numbersign" horiz-adv-x="834" d="M57 192V316H188L210 483H90V606H226L252 799H399L374 606H516L541 799H688L663 606H778V483H647L626 316H745V192H609L585 3H437L462 192H320L294 3H147L173 192H57ZM336 316H478L500 483H357L336 316Z" />
<glyph unicode="$" glyph-name="dollar" horiz-adv-x="647" d="M38 184L158 240Q222 137 333 137Q375 137 405 163T436 233Q436 264 416 285T370 319T288 354T190 400Q66 466 66 596Q66 637 82 677T143 756T253 809V899H403V807Q463 800 518 752T595 653L472 593Q417
680 328 680Q285 680 258 656T231 595Q231 576 238 561T256 536T289 515T332 496T389 474T456 446Q603 380 603 247Q603 155 549 92T403 8V-76H253V10Q190 17 127 69T38 184Z" />
<glyph unicode="%" glyph-name="percent" horiz-adv-x="1135" d="M609 195Q609 285 672 347T841 410Q944 410 1008 348T1072 195Q1072 101 1007 42T841 -18Q737 -18 673 43T609 195ZM760 195Q760 150 784 126T841 101Q875 101 898 125T922 195Q922 238 899 264T841
290Q806 290 783 265T760 195ZM64 623Q64 713 127 775T295 837Q399 837 462 776T526 623Q526 530 462 470T295 409Q192 409 128 470T64 623ZM214 623Q214 578 238 554T295 529Q330 529 353 554T376 623Q376 667 353 692T295 718Q260 718 237 693T214 623ZM201 -9L772
828H938L364 -9H201Z" />
<glyph unicode="&amp;" glyph-name="ampersand" horiz-adv-x="778" d="M207 226Q207 176 239 147T322 117Q387 117 442 169L285 369Q207 303 207 226ZM42 223Q42 370 208 480Q141 563 141 622Q141 711 203 762T368 813Q460 813 523 766T613 651L496 600Q449 678
383 678Q306 678 306 617Q306 604 315 584T348 531T392 472T454 393T522 307Q538 352 549 422L694 396Q684 329 662 270T620 178L763 0H570L528 53Q436 -19 322 -19Q190 -19 116 51T42 223Z" />
<glyph unicode="&apos;" glyph-name="quotesingle" horiz-adv-x="414" d="M96 561L202 905H371L225 561H96Z" />
<glyph unicode="(" glyph-name="parenleft" horiz-adv-x="491" d="M123 395Q123 695 311 949L430 880Q427 876 410 847T388 809T366 770T344 723T325 674T307 615T294 551T285 476T282 395Q282 247 318 138T430 -91L311 -161Q216 -29 170 104T123 395Z" />
<glyph unicode=")" glyph-name="parenright" horiz-adv-x="491" d="M62 -91Q143 33 176 146T210 394Q210 552 173 657T62 880L180 949Q267 829 318 697T369 394Q369 232 321 100T180 -161L62 -91Z" />
<glyph unicode="*" glyph-name="asterisk" horiz-adv-x="620" d="M16 437L71 567L245 499L238 688H382L377 499L550 567L604 437L404 383L560 219L436 128L311 312L183 128L61 219L217 383L16 437Z" />
<glyph unicode="+" glyph-name="plus" horiz-adv-x="620" d="M29 332V474H230V680H389V474H591V332H389V118H230V332H29Z" />
<glyph unicode="," glyph-name="comma" horiz-adv-x="398" d="M41 -165L148 179H316L171 -165H41Z" />
<glyph unicode="-" glyph-name="hyphen" horiz-adv-x="620" d="M54 332V474H567V332H54Z" />
<glyph unicode="." glyph-name="period" horiz-adv-x="398" d="M101 0V178H298V0H101Z" />
<glyph unicode="/" glyph-name="slash" horiz-adv-x="446" d="M-18 -58L298 873H465L148 -58H-18Z" />
<glyph unicode="0" glyph-name="zero" horiz-adv-x="620" d="M205 409Q205 117 311 117Q415 117 415 409Q415 700 310 700Q205 700 205 409ZM34 409Q34 510 52 588T97 712T163 787T237 826T310 837Q445 837 516 722T588 409Q588 209 516 95T311 -19Q276 -19 242
-10T169 27T101 101T53 225T34 409Z" />
<glyph unicode="1" glyph-name="one" horiz-adv-x="620" d="M75 548V673H115Q206 673 246 711T287 806V824H433V-8H262V548H75Z" />
<glyph unicode="2" glyph-name="two" horiz-adv-x="620" d="M41 606Q64 713 131 775T305 837Q419 837 492 771T565 595Q565 523 533 466T440 351Q430 341 386 299T309 218T253 136H561V0H51Q51 54 67 106T103 196T161 280T224 351T293 417Q305 428 311 434Q393
512 393 599Q393 646 369 673T304 700Q212 700 181 564L41 606Z" />
<glyph unicode="3" glyph-name="three" horiz-adv-x="620" d="M25 180L157 228Q199 118 298 118Q347 118 380 150T414 238Q414 288 378 322T280 356Q240 356 200 352V487Q229 485 276 485Q321 485 354 514T387 597Q387 643 360 671T291 700Q212 700 177 587L42
628Q63 722 131 779T301 837Q418 837 488 774T558 613Q558 553 530 505T457 430Q509 410 548 360T587 238Q587 119 509 51T300 -18Q193 -18 119 40T25 180Z" />
<glyph unicode="4" glyph-name="four" horiz-adv-x="620" d="M21 296L371 824H512V298H602V162H512V-5H347V162H21V296ZM176 298H347V478Q347 528 351 573H346Q320 525 300 493L176 298Z" />
<glyph unicode="5" glyph-name="five" horiz-adv-x="620" d="M34 164L172 213Q187 173 219 146T288 118Q342 118 375 156T408 261Q408 323 374 363T287 404Q217 404 168 328L62 368L106 819H537V682H258L238 508Q281 539 344 539Q449 539 514 465T580 264Q580
211 564 163T516 74T426 7T295 -18Q196 -18 131 32T34 164Z" />
<glyph unicode="6" glyph-name="six" horiz-adv-x="620" d="M210 265Q210 194 239 156T315 118Q361 118 389 155T418 265Q418 338 390 374T315 411Q267 411 239 373T210 265ZM39 376Q39 506 69 607T168 772T339 837Q515 837 586 654L456 610Q411 700 340 700Q261
700 226 583Q212 537 208 492Q256 547 338 547Q449 547 518 468T588 266Q588 141 517 62T319 -18Q259 -18 207 5T122 70Q39 173 39 376Z" />
<glyph unicode="7" glyph-name="seven" horiz-adv-x="620" d="M48 678V819H578V707Q398 428 300 -5H128Q193 348 384 678H48Z" />
<glyph unicode="8" glyph-name="eight" horiz-adv-x="620" d="M226 598Q226 552 249 523T311 494Q349 494 371 523T394 598Q394 641 372 670T311 700Q272 700 249 671T226 598ZM31 229Q31 284 56 328T107 393T164 429Q55 496 55 605Q55 707 128 772T311 837Q421
837 493 772T566 605Q566 496 456 429Q512 403 551 354T591 229Q591 118 513 50T311 -18Q195 -18 113 46T31 229ZM202 238Q202 187 232 153T311 118Q359 118 388 152T418 238Q418 285 389 322T311 359Q262 359 232 323T202 238Z" />
<glyph unicode="9" glyph-name="nine" horiz-adv-x="620" d="M202 557Q202 491 228 453T303 414Q350 414 377 453T404 558Q404 620 378 660T303 700Q255 700 229 660T202 557ZM29 163L163 206Q209 118 276 118Q312 118 339 138T380 193T402 261T411 333Q360 278
280 278Q175 278 105 354T34 556Q34 680 108 758T302 837Q402 837 469 774T560 604Q576 534 576 446Q576 220 500 101T275 -18Q185 -18 119 37T29 163Z" />
<glyph unicode=":" glyph-name="colon" horiz-adv-x="398" d="M101 58V238H298V58H101ZM101 499V681H298V499H101Z" />
<glyph unicode=";" glyph-name="semicolon" horiz-adv-x="398" d="M41 -106L148 238H316L171 -106H41ZM110 499V681H307V499H110Z" />
<glyph unicode="&lt;" glyph-name="less" horiz-adv-x="620" d="M36 323V471L482 806L569 686L193 398L569 109L482 -12L36 323Z" />
<glyph unicode="=" glyph-name="equal" horiz-adv-x="620" d="M54 215V356H567V215H54ZM54 450V592H567V450H54Z" />
<glyph unicode="&gt;" glyph-name="greater" horiz-adv-x="620" d="M137 -12L50 109L426 398L50 686L137 806L584 471V323L137 -12Z" />
<glyph unicode="?" glyph-name="question" horiz-adv-x="649" d="M64 632Q85 719 155 781T332 843Q444 843 515 778T587 605Q587 556 569 518T524 453T471 403T426 347T407 274V234H239V287Q239 329 252 364T285 423T327 469T370 512T403 557T416 613Q416 653
394 677T334 702Q254 702 212 584L64 632ZM224 -2V174H422V-2H224Z" />
<glyph unicode="@" glyph-name="at" horiz-adv-x="1033" d="M48 385Q48 593 185 728T537 864Q733 864 859 744T986 444Q986 358 962 293T899 193T818 142T732 125Q689 125 657 147T613 204H612Q598 174 559 150T473 126Q392 126 336 188T280 352Q280 488 348 564T511
641Q543 641 570 628T612 598L614 634H736L718 299Q715 245 742 245Q780 245 813 297T846 437Q846 574 761 660T536 747Q383 747 286 643T189 385Q189 218 283 122T528 25Q642 25 751 56L775 -52Q669 -91 528 -91Q309 -91 179 40T48 385ZM429 354Q429 316 446 285T495
254Q531 254 559 298T588 444Q588 481 572 501T526 522Q490 522 460 475T429 354Z" />
<glyph unicode="A" glyph-name="A" horiz-adv-x="747" d="M270 317H476L424 490Q393 594 376 657H370Q347 570 323 490L270 317ZM-4 0L285 819H462L751 0H576L518 183H229L171 0H-4Z" />
<glyph unicode="B" glyph-name="B" horiz-adv-x="735" d="M79 0V819H396Q534 819 601 761T668 599Q668 544 643 502T576 435Q622 416 659 367T696 244Q696 137 627 69T436 0H79ZM245 142H412Q456 142 489 168T523 244Q523 290 494 320T408 351H245V142ZM245 491H383Q434
491 464 515T495 586Q495 676 386 676H245V491Z" />
<glyph unicode="C" glyph-name="C" horiz-adv-x="748" d="M36 410Q36 605 139 721T406 837Q515 837 594 778T710 628L567 582Q539 632 502 663T405 694Q314 694 261 617T207 410Q207 279 261 202T405 124Q465 124 512 163T580 257L730 210Q718 180 701 151T656
91T593 36T510 -3T406 -18Q246 -18 141 96T36 410Z" />
<glyph unicode="D" glyph-name="D" horiz-adv-x="761" d="M79 0V819H335Q526 819 626 713T726 410Q726 347 716 292T678 182T608 88T495 25T335 0H79ZM245 140H319Q436 140 494 204T552 410Q552 556 492 617T321 678H245V140Z" />
<glyph unicode="E" glyph-name="E" horiz-adv-x="669" d="M79 0V819H632V676H245V493H593V353H245V142H643V0H79Z" />
<glyph unicode="F" glyph-name="F" horiz-adv-x="630" d="M79 0V819H616V676H245V480H577V339H245V0H79Z" />
<glyph unicode="G" glyph-name="G" horiz-adv-x="788" d="M36 410Q36 597 138 717T413 837Q480 837 537 815T630 756T689 689T723 628L580 583Q564 607 553 621T521 655T474 684T414 694Q317 694 262 617T207 410Q207 280 264 202T408 124Q481 124 524 162T577
264Q581 290 581 325H399V467H742V0H629L614 62Q547 -18 402 -18Q247 -18 142 98T36 410Z" />
<glyph unicode="H" glyph-name="H" horiz-adv-x="774" d="M79 0V819H244V491H531V819H697V0H531V350H244V0H79Z" />
<glyph unicode="I" glyph-name="I" horiz-adv-x="323" d="M79 0V819H245V0H79Z" />
<glyph unicode="J" glyph-name="J" horiz-adv-x="583" d="M7 165L141 220Q150 183 177 154T245 124Q338 124 338 259V819H505V239Q505 118 438 50T248 -18Q149 -18 88 37T7 165Z" />
<glyph unicode="K" glyph-name="K" horiz-adv-x="735" d="M79 0V819H245V487H248L533 819H741L420 459L743 0H545L316 342L245 262V0H79Z" />
<glyph unicode="L" glyph-name="L" horiz-adv-x="616" d="M79 0V819H245V142H605V0H79Z" />
<glyph unicode="M" glyph-name="M" horiz-adv-x="937" d="M79 0V819H279L400 474Q414 433 436 361T466 263H470Q524 428 540 474L658 819H859V0H694V316Q694 394 712 572H707L637 358L527 38H411L302 358L231 574H225Q243 427 243 316V0H79Z" />
<glyph unicode="N" glyph-name="N" horiz-adv-x="780" d="M79 0V819H248L463 413L548 251H552Q536 361 536 490V819H702V0H534L320 391L232 564H227Q245 441 245 324V0H79Z" />
<glyph unicode="O" glyph-name="O" horiz-adv-x="788" d="M36 409Q36 602 134 719T394 837Q555 837 653 720T752 409Q752 216 654 99T394 -18Q232 -18 134 99T36 409ZM208 409Q208 276 257 200T394 124Q482 124 531 200T580 409Q580 540 531 617T394 694Q306 694
257 617T208 409Z" />
<glyph unicode="P" glyph-name="P" horiz-adv-x="718" d="M79 0V819H406Q540 819 614 749T688 562Q688 443 612 374T410 304H245V0H79ZM245 447H387Q448 447 482 477T516 562Q516 676 388 676H245V447Z" />
<glyph unicode="Q" glyph-name="Q" horiz-adv-x="788" d="M36 409Q36 602 134 719T394 837Q555 837 653 720T752 409Q752 217 654 100T394 -18Q232 -18 134 99T36 409ZM208 409Q208 277 257 201T394 124Q482 124 531 200T580 409Q580 541 531 617T394 694Q306
694 257 618T208 409ZM355 263L446 345L752 23L662 -57L355 263Z" />
<glyph unicode="R" glyph-name="R" horiz-adv-x="746" d="M245 452H388Q516 452 516 568Q516 618 482 647T387 676H245V452ZM79 0V819H418Q548 819 618 752T688 582Q688 498 654 447T574 374Q609 346 623 319T648 231Q670 119 742 0H556Q499 93 474 219Q464 267
446 289T390 311H245V0H79Z" />
<glyph unicode="S" glyph-name="S" horiz-adv-x="677" d="M18 187L162 236Q188 188 241 156T353 124Q410 124 444 151T479 221Q479 269 440 297T325 352Q207 391 167 412Q48 477 48 604Q48 708 131 772T344 837Q456 837 533 785T648 649L508 603Q442 694 343 694Q286
694 253 670T220 605Q220 588 225 574T244 548T269 528T305 510T343 496T389 481T434 467Q479 452 514 434T583 389T634 320T652 228Q652 111 566 47T349 -18Q236 -18 147 37T18 187Z" />
<glyph unicode="T" glyph-name="T" horiz-adv-x="642" d="M10 676V819H632V676H404V0H239V676H10Z" />
<glyph unicode="U" glyph-name="U" horiz-adv-x="769" d="M74 312V819H241V311Q241 124 385 124Q529 124 529 311V819H696V312Q696 152 619 67T385 -18Q236 -18 155 63T74 312Z" />
<glyph unicode="V" glyph-name="V" horiz-adv-x="701" d="M3 819H183L296 401Q323 290 349 177L353 176Q364 218 381 294T406 401L518 819H699L441 0H260L3 819Z" />
<glyph unicode="W" glyph-name="W" horiz-adv-x="991" d="M14 819H187L252 430Q275 286 290 178H296Q308 254 340 430L413 819H578L652 430Q667 354 697 178H701Q704 197 720 291T742 430L804 819H978L797 0H609L539 383Q506 570 498 620H493Q491 603 453 383L382
0H195L14 819Z" />
<glyph unicode="X" glyph-name="X" horiz-adv-x="713" d="M5 0L263 420L19 819H211L298 653Q302 646 324 605T356 543H360Q381 585 418 653L506 819H698L453 420L712 0H522L421 183Q408 205 387 244T360 294H356Q354 290 331 246T296 183L196 0H5Z" />
<glyph unicode="Y" glyph-name="Y" horiz-adv-x="723" d="M-1 819H188L304 583Q318 555 360 461H365Q394 521 423 583L538 819H728L446 330V0H280V330L-1 819Z" />
<glyph unicode="Z" glyph-name="Z" horiz-adv-x="668" d="M26 120L428 676H59V819H635V696L233 142H646V0H26V120Z" />
<glyph unicode="[" glyph-name="bracketleft" horiz-adv-x="491" d="M122 -128V917H406V785H282V4H406V-128H122Z" />
<glyph unicode="\" glyph-name="backslash" horiz-adv-x="432" d="M-18 873H148L450 -57H284L-18 873Z" />
<glyph unicode="]" glyph-name="bracketright" horiz-adv-x="491" d="M86 4H210V785H86V917H371V-128H86V4Z" />
<glyph unicode="^" glyph-name="asciicircum" horiz-adv-x="613" d="M8 501L232 903H380L605 501H439L342 700L307 776H306L270 698L172 501H8Z" />
<glyph unicode="_" glyph-name="underscore" horiz-adv-x="568" d="M6 -4H564V-136H6V-4Z" />
<glyph unicode="`" glyph-name="grave" horiz-adv-x="414" d="M189 561L44 905H213L319 561H189Z" />
<glyph unicode="a" glyph-name="a" horiz-adv-x="607" d="M192 178Q192 151 213 133T267 114Q320 114 357 150T394 246V286Q336 272 302 267Q192 251 192 178ZM30 164Q30 246 93 300T278 372Q378 388 394 393V424Q394 461 369 478T302 496Q208 496 140 422L46
503Q144 620 300 620Q438 620 496 554T554 367V0H399V62Q381 28 339 5T243 -18Q145 -18 88 32T30 164Z" />
<glyph unicode="b" glyph-name="b" horiz-adv-x="651" d="M68 0V844H226V559Q285 620 364 620Q474 620 547 536T621 302Q621 218 598 154T536 53T455 0T367 -18Q320 -18 280 5T222 59V0H68ZM225 302Q225 216 255 167T341 118Q392 118 424 164T456 302Q456 387
426 435T341 484Q283 484 254 434T225 302Z" />
<glyph unicode="c" glyph-name="c" horiz-adv-x="582" d="M31 301Q31 449 111 534T315 620Q411 620 474 561T552 429L417 392Q407 429 382 456T318 484Q258 484 227 432T196 301Q196 212 230 165T318 118Q362 118 392 148T431 217L566 181Q549 103 479 43T315
-18Q189 -18 110 69T31 301Z" />
<glyph unicode="d" glyph-name="d" horiz-adv-x="651" d="M31 302Q31 451 103 535T290 620Q374 620 425 558V844H584V0H429V60Q411 29 372 6T289 -18Q241 -18 197 0T114 54T54 154T31 302ZM195 302Q195 213 226 166T312 118Q365 118 395 167T426 302Q426 384 397
434T312 484Q254 484 225 435T195 302Z" />
<glyph unicode="e" glyph-name="e" horiz-adv-x="624" d="M31 303Q31 450 113 535T316 620Q433 620 514 533T596 303Q596 274 593 245H193Q193 188 229 149T326 109Q371 109 404 131T455 189L588 142Q558 75 490 29T321 -18Q194 -18 113 69T31 303ZM194 354H433Q433
412 403 453T316 495Q259 495 227 453T194 354Z" />
<glyph unicode="f" glyph-name="f" horiz-adv-x="394" d="M24 467V602H110V652Q110 747 157 795T292 844H398V707H317Q292 707 281 692T270 642V602H385V467H270V0H110V467H24Z" />
<glyph unicode="g" glyph-name="g" horiz-adv-x="632" d="M199 313Q199 230 229 187T308 143Q357 143 386 186T415 313Q415 396 386 440T308 484Q258 484 229 440T199 313ZM35 312Q35 454 106 537T287 620Q334 620 367 598T415 550V602H575V91Q575 -79 506 -159T295
-240Q138 -240 53 -120L157 -46Q212 -113 298 -113Q343 -113 376 -80T414 5Q417 41 417 63Q399 39 363 23T292 7Q178 7 107 90T35 312Z" />
<glyph unicode="h" glyph-name="h" horiz-adv-x="626" d="M68 0V844H226V563H229Q283 620 367 620Q406 620 440 608T505 571T554 498T572 386V0H412V368Q412 484 338 484Q289 484 258 441T226 338V0H68Z" />
<glyph unicode="i" glyph-name="i" horiz-adv-x="297" d="M68 666V830H229V666H68ZM70 0V602H228V0H70Z" />
<glyph unicode="j" glyph-name="j" horiz-adv-x="304" d="M74 666V830H238V666H74ZM-13 -89H5Q41 -89 58 -65T76 15V602H236V9Q236 -108 183 -167T30 -227H-13V-89Z" />
<glyph unicode="k" glyph-name="k" horiz-adv-x="601" d="M68 0V844H226V400L411 602H608L382 355L616 0H431L279 243L226 185V0H68Z" />
<glyph unicode="l" glyph-name="l" horiz-adv-x="303" d="M72 0V844H232V0H72Z" />
<glyph unicode="m" glyph-name="m" horiz-adv-x="920" d="M62 0V602H215V545H216Q226 559 241 573T291 604T361 620Q455 620 502 530Q559 620 676 620Q730 620 768 601T828 548T858 474T867 386V0H707V383Q707 434 692 459T642 484Q596 484 570 446T543 354V0H385V387Q385
432 369 458T320 484Q271 484 247 449T222 354V0H62Z" />
<glyph unicode="n" glyph-name="n" horiz-adv-x="622" d="M62 0V602H215V543H216Q265 620 369 620Q568 620 568 386V0H409V367Q409 431 391 457T334 484Q284 484 253 444T222 342V0H62Z" />
<glyph unicode="o" glyph-name="o" horiz-adv-x="626" d="M195 301Q195 202 232 160T314 118Q333 118 351 126T389 153T420 210T432 301Q432 354 421 392T390 449T352 476T314 484Q269 484 232 443T195 301ZM31 301Q31 363 47 418T95 520T184 593T314 620Q387
620 443 593T531 520T580 419T596 301Q596 261 589 222T563 138T513 60T432 4T314 -18Q249 -18 198 3T116 56T66 132T39 217T31 301Z" />
<glyph unicode="p" glyph-name="p" horiz-adv-x="651" d="M225 302Q225 217 255 168T341 118Q394 118 425 165T457 302Q457 388 427 436T341 484Q284 484 255 434T225 302ZM68 -236V602H221V543Q276 620 364 620Q475 620 548 535T621 302Q621 218 597 154T534
53T452 0T364 -18Q311 -18 277 3T227 50V-236H68Z" />
<glyph unicode="q" glyph-name="q" horiz-adv-x="650" d="M195 302Q195 213 226 166T310 118Q363 118 395 166T427 302Q427 383 397 433T311 484Q255 484 225 435T195 302ZM31 302Q31 450 104 535T288 620Q373 620 430 543V602H584V-236H425V51Q378 -18 288 -18Q243
-18 200 -1T118 52T55 152T31 302Z" />
<glyph unicode="r" glyph-name="r" horiz-adv-x="421" d="M62 0V602H215V551Q234 579 269 599T349 620Q401 620 423 609V463Q388 474 349 474Q285 474 254 424T222 290V0H62Z" />
<glyph unicode="s" glyph-name="s" horiz-adv-x="557" d="M20 130L132 196Q193 110 285 110Q323 110 344 126T366 167Q366 175 364 183T356 197T344 209T328 219T309 228T288 237T265 244T240 252T216 260Q140 285 95 325T49 442Q49 524 119 572T286 620Q361 620
429 581T532 477L427 415Q363 492 288 492Q252 492 232 477T211 439Q211 428 215 419T228 401T246 387T271 375T297 366T328 356T358 346Q530 288 530 165Q530 89 468 36T290 -18Q199 -18 128 22T20 130Z" />
<glyph unicode="t" glyph-name="t" horiz-adv-x="416" d="M17 467V602H103V773H261V602H386V467H261V202Q261 136 319 136H387V0H299Q103 0 103 193V467H17Z" />
<glyph unicode="u" glyph-name="u" horiz-adv-x="620" d="M54 222V602H214V239Q214 118 295 118Q343 118 370 162T398 268V602H558V0H405V54H402Q385 24 347 3T260 -18Q234 -18 210 -14T156 6T105 47T69 117T54 222Z" />
<glyph unicode="v" glyph-name="v" horiz-adv-x="597" d="M9 602H182L251 334Q281 207 297 134H300Q306 161 324 232T349 334L416 602H589L388 0H210L9 602Z" />
<glyph unicode="w" glyph-name="w" horiz-adv-x="841" d="M10 602H179L226 342Q230 318 239 259T256 158H260Q265 189 278 262T293 342L341 602H501L549 341Q553 316 565 253T582 158H586Q600 243 616 342L663 602H832L671 0H500L453 252Q448 280 438 341T423
429H419Q414 397 403 330T389 252L342 0H171L10 602Z" />
<glyph unicode="x" glyph-name="x" horiz-adv-x="626" d="M7 0L220 307L17 602H211L272 487Q299 434 311 414H314Q315 416 330 445T352 487L414 602H608L405 307L618 0H430L359 124Q334 169 314 204H311Q279 146 266 124L195 0H7Z" />
<glyph unicode="y" glyph-name="y" horiz-adv-x="599" d="M6 602H178L268 318Q287 254 303 188H306Q320 246 339 318L420 602H592L348 -66Q314 -160 256 -198T111 -236H66V-102H85Q135 -102 163 -85T207 -26L226 28L6 602Z" />
<glyph unicode="z" glyph-name="z" horiz-adv-x="553" d="M22 0V105L309 467H44V602H518V503L228 136H532V0H22Z" />
<glyph unicode="{" glyph-name="braceleft" horiz-adv-x="491" d="M58 333V456H97Q141 456 141 557V751Q141 830 187 873T311 917H408V785H341Q323 785 312 771T301 733V540Q301 449 224 395Q254 376 277 340T301 251V55Q301 4 343 4H408V-128H311Q236 -128 189
-87T141 37V233Q141 333 97 333H58Z" />
<glyph unicode="|" glyph-name="bar" horiz-adv-x="345" d="M93 -167V954H253V-167H93Z" />
<glyph unicode="}" glyph-name="braceright" horiz-adv-x="491" d="M84 4H151Q192 4 192 55V251Q192 290 207 322T235 367T268 396Q192 447 192 540V733Q192 756 181 770T152 785H84V917H181Q259 917 305 874T352 751V557Q352 456 396 456H434V333H396Q352 333
352 233V37Q352 -45 304 -86T181 -128H84V4Z" />
<glyph unicode="~" glyph-name="asciitilde" horiz-adv-x="900" d="M67 328Q142 542 318 542Q357 542 391 528T449 492T494 450T537 415T579 400Q611 400 635 420T670 462T693 519L834 459Q763 247 584 247Q539 247 498 269T431 318T375 367T319 390Q281 390 253
356T207 271L67 328Z" />
<glyph unicode="&#xa0;" glyph-name=".notdef" horiz-adv-x="250" />
<glyph unicode="&#xa1;" glyph-name="exclamdown" horiz-adv-x="346" d="M85 -221L95 370H252L260 -221H85ZM74 431V607H272V431H74Z" />
<glyph unicode="&#xa2;" glyph-name="cent" horiz-adv-x="582" d="M31 301Q31 415 83 499T234 610V695H379V612Q449 595 494 542T553 429L417 392Q388 484 319 484Q259 484 228 432T196 301Q196 217 228 168T317 118Q361 118 390 147T431 217L566 181Q553 121
505 67T379 -10V-102H234V-8Q145 15 88 97T31 301Z" />
<glyph unicode="&#xa3;" glyph-name="sterling" horiz-adv-x="683" d="M43 331V473H159V619Q159 725 231 781T425 837Q504 837 565 795T654 699L526 637Q484 691 426 691Q382 691 353 670T323 603V473H531V331H323V250Q323 189 307 159Q335 163 345 163Q378 163
429 144T518 124Q576 124 635 155L676 18Q591 -18 518 -18Q480 -18 404 2T292 22Q252 22 197 14T108 -4L73 -12L36 105Q94 117 126 146T159 241V331H43Z" />
<glyph unicode="&#xa4;" glyph-name="currency" horiz-adv-x="748" d="M21 169L142 281Q130 299 120 333T109 403Q109 438 119 473T141 526L21 637L131 742L244 631Q310 666 375 666Q439 666 505 631L618 742L727 637L607 526Q640 474 640 403Q640 368 630 334T607
281L727 169L618 65L505 176Q435 139 375 139Q310 139 244 176L131 65L21 169ZM254 403Q254 354 287 318T375 282Q428 282 461 317T495 403Q495 454 461 489T375 524Q321 524 288 487T254 403Z" />
<glyph unicode="&#xa5;" glyph-name="yen" horiz-adv-x="723" d="M-1 819H188L292 636Q341 550 360 512H365Q376 533 399 574T434 636L538 819H728L507 480H657V362H446V266H657V148H446V0H280V148H69V266H280V362H69V480H218L-1 819Z" />
<glyph unicode="&#xa6;" glyph-name="brokenbar" horiz-adv-x="345" d="M93 501V954H253V501H93ZM93 -167V286H253V-167H93Z" />
<glyph unicode="&#xa7;" glyph-name="section" horiz-adv-x="607" d="M29 65L136 146Q196 80 280 80Q364 80 364 120Q364 144 323 163L207 217Q53 287 53 403Q53 449 79 488T133 548Q79 594 79 662Q79 740 142 788T334 837Q489 837 579 723L476 639Q416 699 331
699Q247 699 247 660Q247 650 252 642T271 625T295 611T333 595T374 578Q378 576 397 568T423 556T449 544T477 528T502 511T526 490T545 466T561 437T571 404T575 366Q575 324 554 285T498 220Q532 175 532 121Q532 37 469 -10T281 -58Q202 -58 131 -22T29 65ZM221
407Q221 378 238 361T291 327L371 291Q407 332 407 366Q407 410 338 440L258 479Q221 450 221 407Z" />
<glyph unicode="&#xa8;" glyph-name="dieresis" horiz-adv-x="600" d="M104 654V819H265V654H104ZM335 654V819H497V654H335Z" />
<glyph unicode="&#xa9;" glyph-name="copyright" horiz-adv-x="936" d="M250 415Q250 543 314 607T480 672Q562 672 610 625T671 516L562 486Q540 560 481 560Q430 560 407 525T383 415Q383 271 481 271Q519 271 542 295T573 352L682 322Q667 251 615 205T480
159Q378 159 314 224T250 415ZM34 414Q34 620 157 740T468 861Q659 861 781 739T903 414Q903 213 781 90T468 -33Q346 -33 249 19T93 174T34 414ZM151 414Q151 252 238 161T468 69Q603 69 695 157T787 414Q787 578 699 669T468 760Q324 760 238 668T151 414Z" />
<glyph unicode="&#xaa;" glyph-name="ordfeminine" horiz-adv-x="428" d="M24 288V386H405V288H24ZM133 591Q133 570 148 557T188 543Q227 543 254 569T282 639V671Q270 668 246 664T213 657T187 651T163 642T148 630T136 613T133 591ZM22 581Q22 622 42 652T97
697T164 720T233 733T282 743V767Q282 821 214 821Q148 821 98 769L34 824Q65 861 113 882T213 904Q311 904 351 858T391 726V466H286V518Q249 454 172 454Q102 454 62 489T22 581Z" />
<glyph unicode="&#xab;" glyph-name="guillemotleft" horiz-adv-x="618" d="M41 305L229 594L344 518L210 305L342 98L229 19L41 305ZM278 305L466 577L577 492L447 305L577 116L466 33L278 305Z" />
<glyph unicode="&#xac;" glyph-name="logicalnot" horiz-adv-x="626" d="M51 315V457H578V128H426V315H51Z" />
<glyph unicode="&#xad;" glyph-name=".notdef" horiz-adv-x="632" d="M61 338V480H571V338H61Z" />
<glyph unicode="&#xae;" glyph-name="registered" horiz-adv-x="936" d="M285 159V662H501Q581 662 623 618T666 510Q666 427 608 390Q626 372 633 356T647 307Q652 286 660 264T675 229T695 192T713 159H565Q528 209 512 296Q504 337 496 344Q491 348 482 348H418V159H285ZM418
447H483Q530 447 530 497Q530 515 517 530T483 546H418V447ZM33 416Q33 622 157 741T468 861Q659 861 781 738T904 416Q904 215 782 92T468 -32Q346 -32 249 20T92 176T33 416ZM151 416Q151 252 236 165T468 77Q610 77 698 163T787 416Q787 584 698 668T468 753Q322
753 237 665T151 416Z" />
<glyph unicode="&#xaf;" glyph-name="overscore" horiz-adv-x="542" d="M5 737V877H538V737H5Z" />
<glyph unicode="&#xb0;" glyph-name="degree" horiz-adv-x="488" d="M89 671Q89 736 133 780T244 825Q309 825 354 782T399 671Q399 606 354 562T244 518Q180 518 135 562T89 671ZM191 671Q191 648 205 632T244 616Q267 616 282 632T297 671Q297 695 282 711T244
727Q221 727 206 711T191 671Z" />
<glyph unicode="&#xb1;" glyph-name="plusminus" horiz-adv-x="632" d="M38 441V578H237V749H396V578H594V441H396V271H237V441H38ZM41 77V214H591V77H41Z" />
<glyph unicode="&#xb2;" glyph-name="twosuperior" horiz-adv-x="372" d="M24 760Q56 906 186 906Q255 906 298 866T342 759Q342 691 280 625Q270 615 244 590T200 544T169 502H340V408H31Q31 484 64 536T183 671Q228 714 228 760Q228 784 217 798T185 812Q136
812 119 732L24 760Z" />
<glyph unicode="&#xb3;" glyph-name="threesuperior" horiz-adv-x="372" d="M14 523L103 555Q129 489 180 489Q205 489 222 505T240 551Q240 577 221 594T169 612Q144 612 115 609V703Q155 701 167 701Q190 701 207 716T224 758Q224 781 211 795T176 810Q135 810
115 743L24 771Q34 815 55 844T102 885T146 900T181 904Q251 904 294 866T338 768Q338 703 287 663Q354 626 354 551Q354 479 308 438T181 396Q125 396 77 427T14 523Z" />
<glyph unicode="&#xb4;" glyph-name="acute" horiz-adv-x="459" d="M99 717L214 915H402L232 717H99Z" />
<glyph unicode="&#xb5;" glyph-name="mu" horiz-adv-x="626" d="M68 -236V602H227V239Q227 118 308 118Q356 118 383 163T411 268V602H571V0H419V50H418Q405 27 368 5T280 -18Q249 -18 227 -7V-236H68Z" />
<glyph unicode="&#xb6;" glyph-name="paragraph" horiz-adv-x="707" d="M50 614Q50 725 109 794T284 863H624V-80H494V717H432V-80H301V357Q286 353 268 353Q176 353 113 420T50 614Z" />
<glyph unicode="&#xb7;" glyph-name="middot" horiz-adv-x="396" d="M100 305V483H296V305H100Z" />
<glyph unicode="&#xb8;" glyph-name="cedilla" horiz-adv-x="353" d="M47 -125Q93 -135 114 -135Q160 -135 160 -115Q160 -82 65 -79L135 62H275L241 -8Q309 -35 309 -117Q309 -168 269 -207T128 -247Q77 -247 47 -238V-125Z" />
<glyph unicode="&#xb9;" glyph-name="onesuperior" horiz-adv-x="372" d="M41 722V810H71Q120 810 141 830T163 879V897H262V409H149V722H41Z" />
<glyph unicode="&#xba;" glyph-name="ordmasculine" horiz-adv-x="440" d="M133 679Q133 607 160 577T220 546Q253 546 280 576T308 679Q308 751 281 781T220 812Q186 812 160 782T133 679ZM21 679Q21 723 32 762T66 834T128 886T220 905Q320 905 369 839T419
679Q419 651 414 623T396 564T361 509T303 470T220 454Q163 454 122 475T60 532T30 604T21 679ZM24 298V396H417V298H24Z" />
<glyph unicode="&#xbb;" glyph-name="guillemotright" horiz-adv-x="618" d="M42 492L152 577L341 305L152 33L42 116L172 305L42 492ZM278 99L409 305L275 518L390 594L579 305L390 19L278 99Z" />
<glyph unicode="&#xbc;" glyph-name="onequarter" horiz-adv-x="1093" d="M55 673V783H95Q194 783 194 857V882H317V316H178V673H55ZM635 155L871 513H984V166H1043V50H984V-61H849V50H635V155ZM771 166H849V232Q849 242 849 271T850 303L814 241L771 166ZM195
-58L717 873H864L345 -58H195Z" />
<glyph unicode="&#xbd;" glyph-name="onehalf" horiz-adv-x="1093" d="M55 673V783H95Q194 783 194 857V882H317V316H178V673H55ZM648 349Q652 370 656 384T675 427T707 474T760 508T837 523Q918 523 969 476T1021 351Q1021 319 1013 293T983 238T950 198T906
153Q847 96 827 64H1018V-53H656Q656 34 691 95T831 255Q881 302 881 353Q881 378 869 392T836 406Q813 406 797 389T776 356T765 313L648 349ZM173 -58L704 873H851L324 -58H173Z" />
<glyph unicode="&#xbe;" glyph-name="threequarters" horiz-adv-x="1093" d="M49 454L159 493Q165 477 169 469T184 447T209 425T244 418Q270 418 288 434T306 482Q306 510 287 528T232 547Q216 547 166 542V660Q191 658 229 658Q253 658 271 673T289 718Q289
742 275 757T239 772Q212 772 198 752T173 695L60 729Q71 779 95 814T149 863T201 883T246 889Q329 889 378 844T428 729Q428 658 374 611Q447 566 447 482Q447 398 393 350T245 301Q179 301 124 338T49 454ZM636 154L872 513H986V166H1044V50H986V-61H850V50H636V154ZM772
166H850V224Q850 234 850 267T851 303L812 234L772 166ZM241 -58L779 873H927L391 -58H241Z" />
<glyph unicode="&#xbf;" glyph-name="questiondown" horiz-adv-x="649" d="M62 1Q62 50 80 89T125 153T178 203T223 260T242 333V371H410V318Q410 268 392 228T348 162T296 113T252 59T234 -8Q234 -48 256 -72T315 -96Q358 -96 386 -67T437 23L585 -26Q564 -113
494 -175T315 -238Q204 -238 133 -172T62 1ZM227 431V607H424V431H227Z" />
<glyph unicode="&#xc0;" glyph-name="Agrave" horiz-adv-x="747" d="M270 317H476L424 490Q393 594 376 657H370Q347 570 323 490L270 317ZM-4 0L285 819H462L751 0H576L518 183H229L171 0H-4ZM412 1078H600L715 881H581L412 1078Z" />
<glyph unicode="&#xc1;" glyph-name="Aacute" horiz-adv-x="747" d="M270 317H476L424 490Q393 594 376 657H370Q347 570 323 490L270 317ZM-4 0L285 819H462L751 0H576L518 183H229L171 0H-4ZM286 881L402 1078H589L419 881H286Z" />
<glyph unicode="&#xc2;" glyph-name="Acircumflex" horiz-adv-x="747" d="M270 317H476L424 490Q393 594 376 657H370Q347 570 323 490L270 317ZM-4 0L285 819H462L751 0H576L518 183H229L171 0H-4ZM382 881L561 1078H696L880 881H716L629 998L546 881H382Z" />
<glyph unicode="&#xc3;" glyph-name="Atilde" horiz-adv-x="747" d="M270 317H476L424 490Q393 594 376 657H370Q347 570 323 490L270 317ZM-4 0L285 819H462L751 0H576L518 183H229L171 0H-4ZM116 975Q137 1003 155 1022T209 1059T286 1077Q324 1077 378 1049T450
1020Q475 1020 500 1037T541 1080L625 1008Q549 901 454 901Q415 901 363 930T291 960Q268 960 243 944T202 902L116 975Z" />
<glyph unicode="&#xc4;" glyph-name="Adieresis" horiz-adv-x="747" d="M270 317H476L424 490Q393 594 376 657H370Q347 570 323 490L270 317ZM-4 0L285 819H462L751 0H576L518 183H229L171 0H-4ZM427 909V1056H581V909H427ZM676 909V1056H831V909H676Z" />
<glyph unicode="&#xc5;" glyph-name="Aring" horiz-adv-x="747" d="M270 317H476L424 490Q393 594 376 657H370Q347 570 323 490L270 317ZM-4 0L285 819H462L751 0H576L518 183H229L171 0H-4ZM205 995Q205 1063 252 1111T373 1160Q447 1160 494 1111T541 995Q541
924 492 877T373 829Q305 829 255 876T205 995ZM312 995Q312 969 329 951T373 933Q397 933 414 950T431 995Q431 1021 415 1039T373 1057Q347 1057 330 1039T312 995Z" />
<glyph unicode="&#xc6;" glyph-name="AE" horiz-adv-x="1079" d="M322 317H505V660H495L322 317ZM-5 0L410 819H1042V677H671V493H1003V353H660V142H1053V0H505V183H258L169 0H-5Z" />
<glyph unicode="&#xc7;" glyph-name="Ccedilla" horiz-adv-x="748" d="M36 410Q36 605 139 721T406 837Q515 837 594 778T710 628L567 582Q539 632 502 663T405 694Q314 694 261 617T207 410Q207 279 261 202T405 124Q465 124 512 163T580 257L730 210Q718 180
701 151T656 91T593 36T510 -3T406 -18Q246 -18 141 96T36 410ZM541 -135Q593 -145 636 -145Q699 -145 699 -112Q699 -107 697 -103T689 -95T678 -90T663 -87T647 -84T630 -83T614 -82T598 -81Q588 -81 585 -81L610 20H752L738 -30Q778 -39 801 -63T824 -124Q824
-172 781 -208T641 -245Q591 -245 541 -233V-135Z" />
<glyph unicode="&#xc8;" glyph-name="Egrave" horiz-adv-x="669" d="M79 0V819H632V676H245V493H593V353H245V142H643V0H79ZM403 1078H591L706 881H572L403 1078Z" />
<glyph unicode="&#xc9;" glyph-name="Eacute" horiz-adv-x="669" d="M79 0V819H632V676H245V493H593V353H245V142H643V0H79ZM520 881L636 1078H823L653 881H520Z" />
<glyph unicode="&#xca;" glyph-name="Ecircumflex" horiz-adv-x="669" d="M361 881L540 1078H675L859 881H695L608 998L525 881H361ZM79 0V819H632V676H245V493H593V353H245V142H643V0H79Z" />
<glyph unicode="&#xcb;" glyph-name="Edieresis" horiz-adv-x="669" d="M79 0V819H632V676H245V493H593V353H245V142H643V0H79ZM405 909V1056H559V909H405ZM654 909V1056H809V909H654Z" />
<glyph unicode="&#xcc;" glyph-name="Igrave" horiz-adv-x="323" d="M79 0V819H245V0H79ZM-46 1078H142L257 881H123L-46 1078Z" />
<glyph unicode="&#xcd;" glyph-name="Iacute" horiz-adv-x="323" d="M79 0V819H245V0H79ZM63 881L179 1078H366L196 881H63Z" />
<glyph unicode="&#xce;" glyph-name="Icircumflex" horiz-adv-x="323" d="M79 0V819H245V0H79ZM-86 881L93 1078H228L412 881H248L161 998L78 881H-86Z" />
<glyph unicode="&#xcf;" glyph-name="Idieresis" horiz-adv-x="323" d="M79 0V819H245V0H79ZM-39 909V1056H115V909H-39ZM210 909V1056H365V909H210Z" />
<glyph unicode="&#xd0;" glyph-name="Eth" horiz-adv-x="761" d="M79 0V819H335Q526 819 626 713T726 410Q726 347 716 292T678 182T608 88T495 25T335 0H79ZM245 140H319Q436 140 494 204T552 410Q552 556 492 617T321 678H245V140ZM9 343V475H448V343H9Z" />
<glyph unicode="&#xd1;" glyph-name="Ntilde" horiz-adv-x="780" d="M133 975Q154 1003 172 1022T226 1059T303 1077Q341 1077 395 1049T467 1020Q492 1020 517 1037T558 1080L642 1008Q566 901 471 901Q432 901 380 930T308 960Q285 960 260 944T219 902L133
975ZM79 0V819H248L463 413L548 251H552Q536 361 536 490V819H702V0H534L320 391L232 564H227Q245 441 245 324V0H79Z" />
<glyph unicode="&#xd2;" glyph-name="Ograve" horiz-adv-x="788" d="M36 409Q36 602 134 719T394 837Q555 837 653 720T752 409Q752 216 654 99T394 -18Q232 -18 134 99T36 409ZM208 409Q208 276 257 200T394 124Q482 124 531 200T580 409Q580 540 531 617T394
694Q306 694 257 617T208 409ZM177 1089H365L480 892H346L177 1089Z" />
<glyph unicode="&#xd3;" glyph-name="Oacute" horiz-adv-x="788" d="M36 409Q36 602 134 719T394 837Q555 837 653 720T752 409Q752 216 654 99T394 -18Q232 -18 134 99T36 409ZM208 409Q208 276 257 200T394 124Q482 124 531 200T580 409Q580 540 531 617T394
694Q306 694 257 617T208 409ZM311 892L427 1089H614L444 892H311Z" />
<glyph unicode="&#xd4;" glyph-name="Ocircumflex" horiz-adv-x="788" d="M36 409Q36 602 134 719T394 837Q555 837 653 720T752 409Q752 216 654 99T394 -18Q232 -18 134 99T36 409ZM208 409Q208 276 257 200T394 124Q482 124 531 200T580 409Q580 540 531 617T394
694Q306 694 257 617T208 409ZM146 892L325 1089H460L644 892H480L393 1009L310 892H146Z" />
<glyph unicode="&#xd5;" glyph-name="Otilde" horiz-adv-x="788" d="M139 975Q160 1003 178 1022T232 1059T309 1077Q347 1077 401 1049T473 1020Q498 1020 523 1037T564 1080L648 1008Q572 901 477 901Q438 901 386 930T314 960Q291 960 266 944T225 902L139
975ZM36 409Q36 602 134 719T394 837Q555 837 653 720T752 409Q752 216 654 99T394 -18Q232 -18 134 99T36 409ZM208 409Q208 276 257 200T394 124Q482 124 531 200T580 409Q580 540 531 617T394 694Q306 694 257 617T208 409Z" />
<glyph unicode="&#xd6;" glyph-name="Odieresis" horiz-adv-x="788" d="M36 409Q36 602 134 719T394 837Q555 837 653 720T752 409Q752 216 654 99T394 -18Q232 -18 134 99T36 409ZM208 409Q208 276 257 200T394 124Q482 124 531 200T580 409Q580 540 531 617T394
694Q306 694 257 617T208 409ZM192 909V1056H346V909H192ZM441 909V1056H596V909H441Z" />
<glyph unicode="&#xd7;" glyph-name="multiply" horiz-adv-x="620" d="M33 239L210 407L33 574L138 675L310 506L481 675L587 574L410 407L587 239L481 138L310 308L138 138L33 239Z" />
<glyph unicode="&#xd8;" glyph-name="Oslash" horiz-adv-x="788" d="M36 409Q36 601 135 719T394 837Q476 837 543 805L582 876H715L639 736Q753 617 753 409Q753 217 654 100T394 -18Q311 -18 252 9L215 -57H84L156 74Q36 194 36 409ZM549 578L324 139Q348 124
394 124Q482 124 531 200T580 409Q580 509 549 578ZM473 674Q437 694 394 694Q306 694 257 617T208 409Q208 308 242 230L473 674Z" />
<glyph unicode="&#xd9;" glyph-name="Ugrave" horiz-adv-x="769" d="M74 312V819H241V311Q241 124 385 124Q529 124 529 311V819H696V312Q696 152 619 67T385 -18Q236 -18 155 63T74 312ZM169 1089H357L472 892H338L169 1089Z" />
<glyph unicode="&#xda;" glyph-name="Uacute" horiz-adv-x="769" d="M74 312V819H241V311Q241 124 385 124Q529 124 529 311V819H696V312Q696 152 619 67T385 -18Q236 -18 155 63T74 312ZM299 892L415 1089H602L432 892H299Z" />
<glyph unicode="&#xdb;" glyph-name="Ucircumflex" horiz-adv-x="769" d="M74 312V819H241V311Q241 124 385 124Q529 124 529 311V819H696V312Q696 152 619 67T385 -18Q236 -18 155 63T74 312ZM137 892L316 1089H451L635 892H471L384 1009L301 892H137Z" />
<glyph unicode="&#xdc;" glyph-name="Udieresis" horiz-adv-x="769" d="M74 312V819H241V311Q241 124 385 124Q529 124 529 311V819H696V312Q696 152 619 67T385 -18Q236 -18 155 63T74 312ZM185 909V1056H339V909H185ZM434 909V1056H589V909H434Z" />
<glyph unicode="&#xdd;" glyph-name="Yacute" horiz-adv-x="723" d="M-1 819H188L304 583Q318 555 360 461H365Q394 521 423 583L538 819H728L446 330V0H280V330L-1 819ZM277 892L393 1089H580L410 892H277Z" />
<glyph unicode="&#xde;" glyph-name="Thorn" horiz-adv-x="639" d="M79 0V819H244V688H295Q383 688 447 664T544 599T593 512T608 415Q608 278 527 207T304 135H244V0H79ZM244 277H289Q364 277 398 312T433 417Q433 547 284 547H244V277Z" />
<glyph unicode="&#xdf;" glyph-name="germandbls" horiz-adv-x="709" d="M79 0V585Q79 708 153 772T338 837Q464 837 539 777T614 611Q614 504 524 449V447Q670 395 670 233Q670 113 598 48T401 -18Q324 -18 274 -2V146Q332 123 395 123Q438 123 468 155T499 234Q499
360 364 360H288V500H350Q389 500 415 526T442 602Q442 644 416 669T345 694Q298 694 272 661T245 572V0H79Z" />
<glyph unicode="&#xe0;" glyph-name="agrave" horiz-adv-x="607" d="M192 178Q192 151 213 133T267 114Q320 114 357 150T394 246V286Q336 272 302 267Q192 251 192 178ZM30 164Q30 246 93 300T278 372Q378 388 394 393V424Q394 461 369 478T302 496Q208 496 140
422L46 503Q144 620 300 620Q438 620 496 554T554 367V0H399V62Q381 28 339 5T243 -18Q145 -18 88 32T30 164ZM97 888H285L400 691H266L97 888Z" />
<glyph unicode="&#xe1;" glyph-name="aacute" horiz-adv-x="607" d="M192 178Q192 151 213 133T267 114Q320 114 357 150T394 246V286Q336 272 302 267Q192 251 192 178ZM30 164Q30 246 93 300T278 372Q378 388 394 393V424Q394 461 369 478T302 496Q208 496 140
422L46 503Q144 620 300 620Q438 620 496 554T554 367V0H399V62Q381 28 339 5T243 -18Q145 -18 88 32T30 164ZM189 691L305 888H492L322 691H189Z" />
<glyph unicode="&#xe2;" glyph-name="acircumflex" horiz-adv-x="607" d="M192 178Q192 151 213 133T267 114Q320 114 357 150T394 246V286Q336 272 302 267Q192 251 192 178ZM30 164Q30 246 93 300T278 372Q378 388 394 393V424Q394 461 369 478T302 496Q208
496 140 422L46 503Q144 620 300 620Q438 620 496 554T554 367V0H399V62Q381 28 339 5T243 -18Q145 -18 88 32T30 164ZM52 691L231 888H366L550 691H386L299 808L216 691H52Z" />
<glyph unicode="&#xe3;" glyph-name="atilde" horiz-adv-x="607" d="M192 178Q192 151 213 133T267 114Q320 114 357 150T394 246V286Q336 272 302 267Q192 251 192 178ZM30 164Q30 246 93 300T278 372Q378 388 394 393V424Q394 461 369 478T302 496Q208 496 140
422L46 503Q144 620 300 620Q438 620 496 554T554 367V0H399V62Q381 28 339 5T243 -18Q145 -18 88 32T30 164ZM50 773Q71 801 89 820T143 857T220 875Q258 875 312 847T384 818Q409 818 434 835T475 878L559 806Q483 699 388 699Q349 699 297 728T225 758Q202 758
177 742T136 700L50 773Z" />
<glyph unicode="&#xe4;" glyph-name="adieresis" horiz-adv-x="607" d="M192 178Q192 151 213 133T267 114Q320 114 357 150T394 246V286Q336 272 302 267Q192 251 192 178ZM30 164Q30 246 93 300T278 372Q378 388 394 393V424Q394 461 369 478T302 496Q208 496
140 422L46 503Q144 620 300 620Q438 620 496 554T554 367V0H399V62Q381 28 339 5T243 -18Q145 -18 88 32T30 164ZM93 718V865H247V718H93ZM342 718V865H497V718H342Z" />
<glyph unicode="&#xe5;" glyph-name="aring" horiz-adv-x="607" d="M192 178Q192 151 213 133T267 114Q320 114 357 150T394 246V286Q336 272 302 267Q192 251 192 178ZM30 164Q30 246 93 300T278 372Q378 388 394 393V424Q394 461 369 478T302 496Q208 496 140
422L46 503Q144 620 300 620Q438 620 496 554T554 367V0H399V62Q381 28 339 5T243 -18Q145 -18 88 32T30 164ZM395 1072Q395 1140 442 1188T563 1237Q637 1237 684 1188T731 1072Q731 1001 682 954T563 906Q495 906 445 953T395 1072ZM502 1072Q502 1046 519 1028T563
1010Q587 1010 604 1027T621 1072Q621 1098 605 1116T563 1134Q537 1134 520 1116T502 1072Z" />
<glyph unicode="&#xe6;" glyph-name="ae" horiz-adv-x="978" d="M30 167Q30 250 99 304T297 375Q365 386 394 391V428Q394 460 366 478T302 496Q213 496 139 422L46 502Q142 620 303 620Q426 620 492 554Q564 620 674 620Q787 620 868 532T949 301Q949 293 947
245H549V235Q550 188 582 149T679 109Q764 109 810 189L941 142Q914 77 845 30T677 -18Q534 -18 456 86Q411 34 361 8T243 -18Q145 -18 88 33T30 167ZM192 178Q192 154 212 134T264 114Q318 114 356 151T394 243V285Q388 284 361 278T314 269Q192 253 192 178ZM549
354H788Q789 413 757 454T676 495Q577 495 551 382L549 354Z" />
<glyph unicode="&#xe7;" glyph-name="ccedilla" horiz-adv-x="582" d="M31 301Q31 449 111 534T315 620Q411 620 474 561T552 429L417 392Q407 429 382 456T318 484Q258 484 227 432T196 301Q196 212 230 165T318 118Q362 118 392 148T431 217L566 181Q549 103
479 43T315 -18Q189 -18 110 69T31 301ZM437 -135Q489 -145 532 -145Q595 -145 595 -112Q595 -107 593 -103T585 -95T574 -90T559 -87T543 -84T526 -83T510 -82T494 -81Q484 -81 481 -81L506 20H648L634 -30Q674 -39 697 -63T720 -124Q720 -172 677 -208T537 -245Q487
-245 437 -233V-135Z" />
<glyph unicode="&#xe8;" glyph-name="egrave" horiz-adv-x="624" d="M31 303Q31 450 113 535T316 620Q433 620 514 533T596 303Q596 274 593 245H193Q193 188 229 149T326 109Q371 109 404 131T455 189L588 142Q558 75 490 29T321 -18Q194 -18 113 69T31 303ZM194
354H433Q433 412 403 453T316 495Q259 495 227 453T194 354ZM112 888H300L415 691H281L112 888Z" />
<glyph unicode="&#xe9;" glyph-name="eacute" horiz-adv-x="624" d="M31 303Q31 450 113 535T316 620Q433 620 514 533T596 303Q596 274 593 245H193Q193 188 229 149T326 109Q371 109 404 131T455 189L588 142Q558 75 490 29T321 -18Q194 -18 113 69T31 303ZM194
354H433Q433 412 403 453T316 495Q259 495 227 453T194 354ZM194 691L310 888H497L327 691H194Z" />
<glyph unicode="&#xea;" glyph-name="ecircumflex" horiz-adv-x="624" d="M31 303Q31 450 113 535T316 620Q433 620 514 533T596 303Q596 274 593 245H193Q193 188 229 149T326 109Q371 109 404 131T455 189L588 142Q558 75 490 29T321 -18Q194 -18 113 69T31
303ZM194 354H433Q433 412 403 453T316 495Q259 495 227 453T194 354ZM65 691L244 888H379L563 691H399L312 808L229 691H65Z" />
<glyph unicode="&#xeb;" glyph-name="edieresis" horiz-adv-x="624" d="M114 718V865H268V718H114ZM363 718V865H518V718H363ZM31 303Q31 450 113 535T316 620Q433 620 514 533T596 303Q596 274 593 245H193Q193 188 229 149T326 109Q371 109 404 131T455 189L588
142Q558 75 490 29T321 -18Q194 -18 113 69T31 303ZM194 354H433Q433 412 403 453T316 495Q259 495 227 453T194 354Z" />
<glyph unicode="&#xec;" glyph-name="igrave" horiz-adv-x="295" d="M68 0V602H227V0H68ZM-59 888H129L244 691H110L-59 888Z" />
<glyph unicode="&#xed;" glyph-name="iacute" horiz-adv-x="295" d="M68 0V602H227V0H68ZM50 691L166 888H353L183 691H50Z" />
<glyph unicode="&#xee;" glyph-name="icircumflex" horiz-adv-x="295" d="M-96 691L83 888H218L402 691H238L151 808L68 691H-96ZM68 0V602H227V0H68Z" />
<glyph unicode="&#xef;" glyph-name="idieresis" horiz-adv-x="295" d="M-48 718V865H106V718H-48ZM201 718V865H356V718H201ZM68 0V602H227V0H68Z" />
<glyph unicode="&#xf0;" glyph-name="eth" horiz-adv-x="621" d="M151 656L468 894L558 791L244 555L151 656ZM31 254Q31 385 105 464T297 543Q366 543 408 517Q389 591 306 656T132 737L189 866Q242 858 291 841T398 783T496 686T564 533T592 318Q592 165 516
74T301 -18Q180 -18 106 57T31 254ZM195 261Q195 198 225 158T307 118Q355 118 385 156T415 261Q415 325 385 365T305 405Q256 405 226 365T195 261Z" />
<glyph unicode="&#xf1;" glyph-name="ntilde" horiz-adv-x="622" d="M55 773Q76 801 94 820T148 857T225 875Q263 875 317 847T389 818Q414 818 439 835T480 878L564 806Q488 699 393 699Q354 699 302 728T230 758Q207 758 182 742T141 700L55 773ZM62 0V602H215V543H216Q265
620 369 620Q568 620 568 386V0H409V367Q409 431 391 457T334 484Q284 484 253 444T222 342V0H62Z" />
<glyph unicode="&#xf2;" glyph-name="ograve" horiz-adv-x="626" d="M195 301Q195 202 232 160T314 118Q333 118 351 126T389 153T420 210T432 301Q432 354 421 392T390 449T352 476T314 484Q269 484 232 443T195 301ZM31 301Q31 363 47 418T95 520T184 593T314
620Q387 620 443 593T531 520T580 419T596 301Q596 261 589 222T563 138T513 60T432 4T314 -18Q249 -18 198 3T116 56T66 132T39 217T31 301ZM112 888H300L415 691H281L112 888Z" />
<glyph unicode="&#xf3;" glyph-name="oacute" horiz-adv-x="626" d="M195 301Q195 202 232 160T314 118Q333 118 351 126T389 153T420 210T432 301Q432 354 421 392T390 449T352 476T314 484Q269 484 232 443T195 301ZM31 301Q31 363 47 418T95 520T184 593T314
620Q387 620 443 593T531 520T580 419T596 301Q596 261 589 222T563 138T513 60T432 4T314 -18Q249 -18 198 3T116 56T66 132T39 217T31 301ZM211 691L327 888H514L344 691H211Z" />
<glyph unicode="&#xf4;" glyph-name="ocircumflex" horiz-adv-x="626" d="M63 691L242 888H377L561 691H397L310 808L227 691H63ZM195 301Q195 202 232 160T314 118Q333 118 351 126T389 153T420 210T432 301Q432 354 421 392T390 449T352 476T314 484Q269 484
232 443T195 301ZM31 301Q31 363 47 418T95 520T184 593T314 620Q387 620 443 593T531 520T580 419T596 301Q596 261 589 222T563 138T513 60T432 4T314 -18Q249 -18 198 3T116 56T66 132T39 217T31 301Z" />
<glyph unicode="&#xf5;" glyph-name="otilde" horiz-adv-x="626" d="M57 773Q78 801 96 820T150 857T227 875Q265 875 319 847T391 818Q416 818 441 835T482 878L566 806Q490 699 395 699Q356 699 304 728T232 758Q209 758 184 742T143 700L57 773ZM195 301Q195
202 232 160T314 118Q333 118 351 126T389 153T420 210T432 301Q432 354 421 392T390 449T352 476T314 484Q269 484 232 443T195 301ZM31 301Q31 363 47 418T95 520T184 593T314 620Q387 620 443 593T531 520T580 419T596 301Q596 261 589 222T563 138T513 60T432
4T314 -18Q249 -18 198 3T116 56T66 132T39 217T31 301Z" />
<glyph unicode="&#xf6;" glyph-name="odieresis" horiz-adv-x="626" d="M110 718V865H264V718H110ZM359 718V865H514V718H359ZM195 301Q195 202 232 160T314 118Q333 118 351 126T389 153T420 210T432 301Q432 354 421 392T390 449T352 476T314 484Q269 484 232
443T195 301ZM31 301Q31 363 47 418T95 520T184 593T314 620Q387 620 443 593T531 520T580 419T596 301Q596 261 589 222T563 138T513 60T432 4T314 -18Q249 -18 198 3T116 56T66 132T39 217T31 301Z" />
<glyph unicode="&#xf7;" glyph-name="divide" horiz-adv-x="620" d="M220 540V712H397V540H220ZM29 332V474H591V332H29ZM220 93V266H397V93H220Z" />
<glyph unicode="&#xf8;" glyph-name="oslash" horiz-adv-x="626" d="M31 300Q31 362 47 417T95 519T184 593T314 620Q374 620 425 601L465 676H584L512 544Q596 456 596 300Q596 260 589 221T563 137T514 59T432 4T314 -18Q250 -18 205 -2L172 -60H55L118 54Q31
142 31 300ZM420 385L274 126Q293 118 314 118Q333 118 351 126T389 153T420 210T432 300Q432 347 420 385ZM356 474Q333 484 314 484Q269 484 232 442T195 300Q195 255 209 211L356 474Z" />
<glyph unicode="&#xf9;" glyph-name="ugrave" horiz-adv-x="620" d="M54 222V602H214V239Q214 118 295 118Q343 118 370 162T398 268V602H558V0H405V54H402Q385 24 347 3T260 -18Q234 -18 210 -14T156 6T105 47T69 117T54 222ZM99 888H287L402 691H268L99 888Z" />
<glyph unicode="&#xfa;" glyph-name="uacute" horiz-adv-x="620" d="M54 222V602H214V239Q214 118 295 118Q343 118 370 162T398 268V602H558V0H405V54H402Q385 24 347 3T260 -18Q234 -18 210 -14T156 6T105 47T69 117T54 222ZM205 691L321 888H508L338 691H205Z" />
<glyph unicode="&#xfb;" glyph-name="ucircumflex" horiz-adv-x="620" d="M54 222V602H214V239Q214 118 295 118Q343 118 370 162T398 268V602H558V0H405V54H402Q385 24 347 3T260 -18Q234 -18 210 -14T156 6T105 47T69 117T54 222ZM62 691L241 888H376L560 691H396L309
808L226 691H62Z" />
<glyph unicode="&#xfc;" glyph-name="udieresis" horiz-adv-x="620" d="M113 718V865H267V718H113ZM362 718V865H517V718H362ZM54 222V602H214V239Q214 118 295 118Q343 118 370 162T398 268V602H558V0H405V54H402Q385 24 347 3T260 -18Q234 -18 210 -14T156 6T105
47T69 117T54 222Z" />
<glyph unicode="&#xfd;" glyph-name="yacute" horiz-adv-x="599" d="M6 602H178L268 318Q287 254 303 188H306Q320 246 339 318L420 602H592L348 -66Q314 -160 256 -198T111 -236H66V-102H85Q135 -102 163 -85T207 -26L226 28L6 602ZM194 691L310 888H497L327 691H194Z" />
<glyph unicode="&#xfe;" glyph-name="thorn" horiz-adv-x="660" d="M235 301Q235 216 265 167T350 118Q403 118 434 165T466 301Q466 386 436 435T350 484Q294 484 265 435T235 301ZM77 -236V844H236V553Q252 580 288 600T373 620Q483 620 556 534T630 301Q630
217 607 153T544 53T462 0T373 -18Q280 -18 237 47V-236H77Z" />
<glyph unicode="&#xff;" glyph-name="ydieresis" horiz-adv-x="599" d="M97 718V865H251V718H97ZM346 718V865H501V718H346ZM6 602H178L268 318Q287 254 303 188H306Q320 246 339 318L420 602H592L348 -66Q314 -160 256 -198T111 -236H66V-102H85Q135 -102 163
-85T207 -26L226 28L6 602Z" />
<glyph unicode="&#x2013;" glyph-name="endash" horiz-adv-x="529" d="M32 322V465H499V322H32Z" />
<glyph unicode="&#x2014;" glyph-name="emdash" horiz-adv-x="1052" d="M0 322V465H1054V322H0Z" />
<glyph unicode="&#x2018;" glyph-name="quoteleft" horiz-adv-x="398" d="M102 563V690Q102 859 228 944L307 878Q264 850 247 819T229 732H307V563H102Z" />
<glyph unicode="&#x2019;" glyph-name="quoteright" horiz-adv-x="398" d="M91 736V905H297V778Q297 609 171 524L92 590Q135 618 152 649T170 736H91Z" />
<glyph unicode="&#x201a;" glyph-name="quotesinglbase" horiz-adv-x="398" d="M91 9V178H297V52Q297 -118 171 -203L92 -137Q135 -109 152 -78T170 9H91Z" />
<glyph unicode="&#x201c;" glyph-name="quotedblleft" horiz-adv-x="641" d="M363 563V690Q363 859 489 944L568 878Q525 850 508 819T490 732H568V563H363ZM84 563V690Q84 774 116 843T210 954L289 887Q247 860 229 824T211 732H289V563H84Z" />
<glyph unicode="&#x201d;" glyph-name="quotedblright" horiz-adv-x="641" d="M74 590Q117 618 134 649T151 736H73V905H279V778Q279 610 152 524L74 590ZM354 581Q395 608 413 643T431 736H353V905H559V778Q559 694 527 625T433 514L354 581Z" />
<glyph unicode="&#x201e;" glyph-name="quotedblbase" horiz-adv-x="641" d="M74 -137Q117 -109 134 -78T151 9H73V178H279V52Q279 -117 152 -203L74 -137ZM354 -146Q395 -119 413 -84T431 9H353V178H559V52Q559 -32 526 -102T432 -213L354 -146Z" />
<glyph unicode="&#x2022;" glyph-name="bullet" horiz-adv-x="524" d="M140 271V516H385V271H140Z" />
<glyph unicode="&#x2039;" glyph-name="guilsinglleft" horiz-adv-x="428" d="M61 307L268 592L383 516L231 307L383 99L268 22L61 307Z" />
<glyph unicode="&#x203a;" glyph-name="guilsinglright" horiz-adv-x="428" d="M45 99L198 307L45 516L161 592L367 307L161 22L45 99Z" />
</font>
</defs>
</svg>
